<?xml version="1.0" encoding="UTF-8" standalone="no"?>
<svg
   viewBox="0 0 24 24"
   version="1.1"
   id="svg1"
   sodipodi:docname="school-building.svg"
   inkscape:version="1.3.2 (091e20e, 2023-11-25, custom)"
   xmlns:inkscape="http://www.inkscape.org/namespaces/inkscape"
   xmlns:sodipodi="http://sodipodi.sourceforge.net/DTD/sodipodi-0.dtd"
   xmlns="http://www.w3.org/2000/svg"
   xmlns:svg="http://www.w3.org/2000/svg">
  <defs
     id="defs1" />
  <sodipodi:namedview
     id="namedview1"
     pagecolor="#ffffff"
     bordercolor="#000000"
     borderopacity="0.25"
     inkscape:showpageshadow="2"
     inkscape:pageopacity="0.0"
     inkscape:pagecheckerboard="0"
     inkscape:deskcolor="#d1d1d1"
     inkscape:zoom="34.875"
     inkscape:cx="12"
     inkscape:cy="12"
     inkscape:window-width="1920"
     inkscape:window-height="1051"
     inkscape:window-x="-9"
     inkscape:window-y="-9"
     inkscape:window-maximized="1"
     inkscape:current-layer="svg1" />
  <path
     d="M21 10H17V8L12.5 6.2V4H15V2H11.5V6.2L7 8V10H3C2.45 10 2 10.45 2 11V22H10V17H14V22H22V11C22 10.45 21.55 10 21 10M8 20H4V17H8V20M8 15H4V12H8V15M12 8C12.55 8 13 8.45 13 9S12.55 10 12 10 11 9.55 11 9 11.45 8 12 8M14 15H10V12H14V15M20 20H16V17H20V20M20 15H16V12H20V15Z"
     id="path1"
     style="fill:#094067;fill-opacity:1" />
</svg>
